<svg width="48" height="48" viewBox="0 0 48 48" fill="none" xmlns="http://www.w3.org/2000/svg">
<path opacity="0.15" d="M24 44C31.4558 44 37.5 43.3284 37.5 42.5C37.5 41.6716 31.4558 41 24 41C16.5442 41 10.5 41.6716 10.5 42.5C10.5 43.3284 16.5442 44 24 44Z" fill="#45413C"/>
<path d="M40.21 26.6L40.49 28C40.49 28 29.49 31.86 24.24 33C18.24 34.27 8.67998 35.13 5.51998 35.57C4.73933 35.6749 3.94523 35.5398 3.24324 35.1826C2.54124 34.8253 1.96461 34.2629 1.58998 33.57L1.09998 32.7L39.94 25.12L40.21 26.6Z" fill="#DEBB7E" stroke="#45413C" strokeLinecap="round" strokeLinejoin="round"/>
<path d="M40.21 26.6L39.75 24.17C39.05 20.45 30.75 16.04 20.75 17.06C20.75 17.06 18.85 13.64 21.75 12.46C24.65 11.28 45.67 7.28998 46.45 23.29C46.4715 23.8761 46.2812 24.4504 45.914 24.9077C45.5467 25.3649 45.027 25.6746 44.45 25.78L40.21 26.6Z" fill="#F0D5A8"/>
<path d="M21.8101 12.46C19.9001 13.23 20.0501 14.95 20.3801 16.05C20.685 15.674 21.0858 15.3872 21.5401 15.22C24.3701 14.07 44.2401 10.28 46.1201 24.69C46.3954 24.2765 46.5319 23.7862 46.5101 23.29C45.7301 7.28998 24.7301 11.28 21.8101 12.46Z" fill="#F7E5C6"/>
<path d="M40.2101 26.6L44.5001 25.78C45.0771 25.6747 45.5968 25.365 45.9641 24.9077C46.3314 24.4504 46.5217 23.8761 46.5001 23.29C46.4463 21.929 46.2005 20.5824 45.7701 19.29C44.939 19.0115 44.0493 18.9563 43.1901 19.13C40.8401 19.57 39.1901 21.43 39.5701 23.27L40.2101 26.6Z" fill="#DEBB7E"/>
<path d="M40.2101 26.6L44.5001 25.78C45.0771 25.6747 45.5968 25.365 45.9641 24.9077C46.3314 24.4504 46.5217 23.8761 46.5001 23.29C46.4463 21.929 46.2005 20.5824 45.7701 19.29C44.939 19.0115 44.0493 18.9563 43.1901 19.13C40.8401 19.57 39.1901 21.43 39.5701 23.27L40.2101 26.6Z" stroke="#45413C" strokeLinecap="round" strokeLinejoin="round"/>
<path d="M40.21 26.6L39.75 24.17C39.05 20.45 30.75 16.04 20.75 17.06C20.75 17.06 18.85 13.64 21.75 12.46C24.65 11.28 45.67 7.28998 46.45 23.29C46.4715 23.8761 46.2813 24.4504 45.914 24.9077C45.5467 25.3649 45.027 25.6746 44.45 25.78L40.21 26.6Z" stroke="#45413C" strokeLinecap="round" strokeLinejoin="round"/>
<path d="M20.79 17.06L1.52 31.06C1.32418 31.1957 1.1712 31.3845 1.07907 31.6041C0.986943 31.8238 0.95951 32.0653 1 32.3L1.08 32.74L1.54 35.17C1.56887 35.3312 1.62939 35.4851 1.71805 35.6228C1.80672 35.7605 1.92178 35.8792 2.05659 35.9722C2.19141 36.0652 2.3433 36.1305 2.50351 36.1645C2.66372 36.1984 2.82906 36.2003 2.99 36.17C3.15141 36.1436 3.30586 36.085 3.44417 35.9977C3.58248 35.9105 3.70183 35.7962 3.79512 35.6619C3.88841 35.5276 3.95373 35.3759 3.98721 35.2158C4.02069 35.0557 4.02164 34.8905 3.99 34.73L3.76 33.51L7.41 32.82L7.75 34.65C7.86338 35.1124 8.14971 35.5136 8.55004 35.7712C8.95037 36.0288 9.43422 36.1231 9.90197 36.0346C10.3697 35.9462 10.7858 35.6818 11.0644 35.2959C11.3431 34.9099 11.4632 34.4318 11.4 33.96L11.05 32.13L28.05 28.91L28.28 30.13C28.3089 30.2912 28.3694 30.4451 28.4581 30.5828C28.5467 30.7205 28.6618 30.8392 28.7966 30.9322C28.9314 31.0252 29.0833 31.0905 29.2435 31.1245C29.4037 31.1584 29.5691 31.1603 29.73 31.13C29.8914 31.1036 30.0459 31.045 30.1842 30.9577C30.3225 30.8705 30.4418 30.7562 30.5351 30.6219C30.6284 30.4876 30.6937 30.3358 30.7272 30.1758C30.7607 30.0157 30.7616 29.8505 30.73 29.69L30.5 28.47L36.58 27.32L36.92 29.15C37.0334 29.6124 37.3197 30.0136 37.72 30.2712C38.1204 30.5288 38.6042 30.6231 39.072 30.5346C39.5397 30.4462 39.9558 30.1818 40.2344 29.7959C40.5131 29.4099 40.6332 28.9318 40.57 28.46L39.76 24.21C39.05 20.45 30.77 16 20.79 17.06Z" fill="#FFE500"/>
<path d="M36.57 27.28L36.91 29.11C37.0234 29.5723 37.3097 29.9736 37.7101 30.2312C38.1104 30.4887 38.5943 30.583 39.062 30.4946C39.5298 30.4062 39.9458 30.1418 40.2245 29.7558C40.5031 29.3699 40.6232 28.8918 40.56 28.42L39.75 24.17C39.05 20.45 30.75 16.04 20.75 17.06L19.66 17.85C27.88 18.1 34.24 21.85 34.85 25.08L35.31 27.51L36.57 27.28Z" fill="#EBCB00"/>
<path d="M6.33995 31C6.22379 30.9977 6.11189 30.9558 6.02279 30.8812C5.93368 30.8067 5.87271 30.7039 5.84995 30.59C5.82657 30.4601 5.8555 30.3262 5.93044 30.2176C6.00537 30.1089 6.12022 30.0343 6.24995 30.01L36.6199 24.26C36.7526 24.2348 36.8897 24.2633 37.0013 24.3393C37.1129 24.4152 37.1898 24.5324 37.2149 24.665C37.2401 24.7976 37.2116 24.9348 37.1357 25.0464C37.0597 25.1579 36.9426 25.2348 36.8099 25.26L6.42995 31H6.33995Z" fill="#EBCB00"/>
<path d="M30.49 28.43L30.26 27.22" stroke="#45413C" strokeLinecap="round" strokeLinejoin="round"/>
<path d="M36.5701 27.28L36.1101 24.85" stroke="#45413C" strokeLinecap="round" strokeLinejoin="round"/>
<path d="M20.79 17.06L1.52 31.06C1.32418 31.1957 1.1712 31.3845 1.07907 31.6041C0.986943 31.8238 0.95951 32.0653 1 32.3L1.54 35.17C1.56887 35.3312 1.62939 35.4851 1.71805 35.6228C1.80672 35.7605 1.92178 35.8792 2.05659 35.9722C2.19141 36.0652 2.3433 36.1305 2.50351 36.1645C2.66372 36.1984 2.82906 36.2003 2.99 36.17C3.15141 36.1436 3.30586 36.085 3.44417 35.9977C3.58248 35.9105 3.70183 35.7962 3.79512 35.6619C3.88841 35.5276 3.95373 35.3758 3.98721 35.2158C4.02069 35.0557 4.02164 34.8905 3.99 34.73L3.76 33.51L7.41 32.82L7.75 34.65C7.86338 35.1124 8.14971 35.5136 8.55004 35.7712C8.95037 36.0288 9.43422 36.1231 9.90197 36.0346C10.3697 35.9462 10.7858 35.6818 11.0644 35.2959C11.3431 34.9099 11.4632 34.4318 11.4 33.96L11.05 32.13L28.05 28.91L28.28 30.13C28.3089 30.2912 28.3694 30.4451 28.4581 30.5828C28.5467 30.7205 28.6618 30.8392 28.7966 30.9322C28.9314 31.0252 29.0833 31.0905 29.2435 31.1245C29.4037 31.1584 29.5691 31.1603 29.73 31.13C29.8914 31.1036 30.0459 31.045 30.1842 30.9577C30.3225 30.8705 30.4418 30.7562 30.5351 30.6219C30.6284 30.4876 30.6937 30.3358 30.7272 30.1758C30.7607 30.0157 30.7616 29.8505 30.73 29.69L30.5 28.47L36.58 27.32L36.92 29.15C37.0334 29.6124 37.3197 30.0136 37.72 30.2712C38.1204 30.5288 38.6042 30.6231 39.072 30.5346C39.5397 30.4462 39.9558 30.1818 40.2344 29.7959C40.5131 29.4099 40.6332 28.9318 40.57 28.46L39.76 24.21C39.05 20.45 30.77 16 20.79 17.06Z" stroke="#45413C" strokeLinecap="round" strokeLinejoin="round"/>
<path d="M7.41005 32.8L7.18005 31.59" stroke="#45413C" strokeLinecap="round" strokeLinejoin="round"/>
<path d="M18.18 23.21C20.53 22.77 22.23 21.32 21.97 19.98C21.79 18.98 20.64 18.38 19.14 18.25L13.74 22.18C14.42 23.13 16.21 23.59 18.18 23.21Z" fill="#FF6242" stroke="#45413C" strokeLinecap="round" strokeLinejoin="round"/>
<path d="M34.3 25.2C34.4474 25.0145 34.5553 24.8008 34.6172 24.5721C34.6791 24.3434 34.6937 24.1045 34.66 23.87C34.41 22.53 32.3 21.8 29.95 22.24C27.6 22.68 25.95 24.14 26.16 25.48C26.216 25.7089 26.3175 25.9242 26.4584 26.1132C26.5992 26.3021 26.7766 26.4609 26.98 26.58L34.3 25.2Z" fill="#FF6242" stroke="#45413C" strokeLinecap="round" strokeLinejoin="round"/>
<path d="M9.99999 29.79C10.1443 29.6049 10.2497 29.3926 10.3099 29.1658C10.37 28.9389 10.3837 28.7022 10.35 28.47C10.17 27.47 8.98999 26.84 7.45999 26.74L2.10999 30.63C2.26434 30.8505 2.46161 31.0376 2.68999 31.18L9.99999 29.79Z" fill="#FF6242" stroke="#45413C" strokeLinecap="round" strokeLinejoin="round"/>
<path d="M23.86 27.17C23.15 25.87 20.99 25.17 18.64 25.64C16.29 26.11 14.53 27.5 14.34 29L23.86 27.17Z" fill="#FF6242" stroke="#45413C" strokeLinecap="round" strokeLinejoin="round"/>
</svg>
